<svg id="eBl8Gfr7cZj1" xmlns="http://www.w3.org/2000/svg" xmlns:xlink="http://www.w3.org/1999/xlink" viewBox="0 0 200 200" shape-rendering="geometricPrecision" text-rendering="geometricPrecision" project-id="f040b403a5ea4784a8605cc8c4a74426" export-id="5547ebe2d22b460eb85b5912f6570ccf" cached="false"><defs><filter id="eBl8Gfr7cZj4-filter" x="-150%" y="-150%" width="400%" height="400%"><feGaussianBlur id="eBl8Gfr7cZj4-filter-inner-shadow-0-blur" in="SourceAlpha" stdDeviation="25,25"/><feOffset id="eBl8Gfr7cZj4-filter-inner-shadow-0-offset" dx="0" dy="0" result="tmp"/><feComposite id="eBl8Gfr7cZj4-filter-inner-shadow-0-composite" operator="arithmetic" k2="-1" k3="1" in2="SourceGraphic"/><feColorMatrix id="eBl8Gfr7cZj4-filter-inner-shadow-0-color-matrix" type="matrix" values="0 0 0 0 0.882353 0 0 0 0 0.815686 0 0 0 0 0.235294 0 0 0 1 0"/><feMerge id="eBl8Gfr7cZj4-filter-inner-shadow-0-merge" result="result"><feMergeNode id="eBl8Gfr7cZj4-filter-inner-shadow-0-merge-node-1" in="SourceGraphic"/><feMergeNode id="eBl8Gfr7cZj4-filter-inner-shadow-0-merge-node-2"/></feMerge><feGaussianBlur id="eBl8Gfr7cZj4-filter-drop-shadow-0-blur" in="result" stdDeviation="25,25"/><feOffset id="eBl8Gfr7cZj4-filter-drop-shadow-0-offset" dx="0" dy="27" result="tmp"/><feFlood id="eBl8Gfr7cZj4-filter-drop-shadow-0-flood" flood-color="#dac507"/><feComposite id="eBl8Gfr7cZj4-filter-drop-shadow-0-composite" operator="in" in2="tmp"/><feMerge id="eBl8Gfr7cZj4-filter-drop-shadow-0-merge" result="result"><feMergeNode id="eBl8Gfr7cZj4-filter-drop-shadow-0-merge-node-1"/><feMergeNode id="eBl8Gfr7cZj4-filter-drop-shadow-0-merge-node-2" in="result"/></feMerge></filter><filter id="eBl8Gfr7cZj5-filter" x="-150%" y="-150%" width="400%" height="400%"><feGaussianBlur id="eBl8Gfr7cZj5-filter-drop-shadow-0-blur" in="SourceAlpha" stdDeviation="12.75,17"/><feOffset id="eBl8Gfr7cZj5-filter-drop-shadow-0-offset" dx="0" dy="8" result="tmp"/><feFlood id="eBl8Gfr7cZj5-filter-drop-shadow-0-flood" flood-color="#cdcaaf"/><feComposite id="eBl8Gfr7cZj5-filter-drop-shadow-0-composite" operator="in" in2="tmp"/><feMerge id="eBl8Gfr7cZj5-filter-drop-shadow-0-merge" result="result"><feMergeNode id="eBl8Gfr7cZj5-filter-drop-shadow-0-merge-node-1"/><feMergeNode id="eBl8Gfr7cZj5-filter-drop-shadow-0-merge-node-2" in="SourceGraphic"/></feMerge></filter></defs><path d="M53.967074,259.275581c0-16.165145,49.172058-67.381159,98.122699-67.381159s93.943153,54.228722,93.943153,67.381159h-192.065852Z" transform="matrix(1 0 0 1.015637-50-88.474461)" fill="#d2dbed" stroke-width="0.6"/><ellipse rx="96.032926" ry="13.094674" transform="matrix(1 0 0 0.6 100 174.855412)" fill="#778fbd" stroke-width="0"/><ellipse rx="96.032926" ry="13.094674" transform="matrix(.95 0 0 0.5 100 174.855411)" filter="url(#eBl8Gfr7cZj4-filter)" fill="#d9dee6" stroke-width="0"/><path d="M103.917792,241.75009h46.11666c-11.771671,5.045588-16.360378,5.987116-22.902811,5.987116-6.457991,0-10.827046-.638738-23.213849-5.987116Z" transform="translate(-26.976122-73.442016)" filter="url(#eBl8Gfr7cZj5-filter)" fill="#cdcaaf" stroke-width="0.5"/><rect width="13.931821" height="20.123742" rx="0" ry="0" transform="matrix(-.322461 0 0 4.249386 102.246235 0.000001)" fill="#d2dbed" stroke-width="0"/><path d="M159.570222,180.935261v-24.254169C159.628098,150,159.57338,150,151.611823,150c-7.958399,0-7.958399,0-7.80681,6.681092l-.151589,24.254169h15.916798Z" transform="translate(-51.615126-70.227252)" fill="#d2dbed" stroke-width="0.6"/></svg>
